<svg width="768" height="820" viewBox="0 0 768 820" fill="none" xmlns="http://www.w3.org/2000/svg">
<rect width="768" height="820" fill="#8257E5"/>
<path d="M590.569 737.405C585.526 737.405 581.437 733.339 581.437 728.324C581.437 723.308 585.526 719.243 590.569 719.243C595.612 719.243 599.701 723.308 599.701 728.324C599.701 733.323 595.612 737.405 590.569 737.405Z" stroke="#04D361" stroke-width="3" stroke-miterlimit="10" stroke-linecap="round" stroke-linejoin="round"/>
<path d="M584.269 734.888L577.811 741.294" stroke="#04D361" stroke-width="3" stroke-miterlimit="10" stroke-linecap="round" stroke-linejoin="round"/>
<path d="M419.217 78L409.609 87.5541" stroke="#04D361" stroke-width="3" stroke-miterlimit="10" stroke-linecap="round" stroke-linejoin="round"/>
<path d="M419.217 87.5541L409.609 78" stroke="#04D361" stroke-width="3" stroke-miterlimit="10" stroke-linecap="round" stroke-linejoin="round"/>
<path d="M405.461 652.763L395.854 662.317" stroke="#04D361" stroke-width="3" stroke-miterlimit="10" stroke-linecap="round" stroke-linejoin="round"/>
<path d="M405.461 662.317L395.854 652.763" stroke="#04D361" stroke-width="3" stroke-miterlimit="10" stroke-linecap="round" stroke-linejoin="round"/>
<path d="M105.431 263.274L91.8441 263.274" stroke="#04D361" stroke-width="3" stroke-miterlimit="10" stroke-linecap="round" stroke-linejoin="round"/>
<path d="M98.639 270.046L98.639 256.52" stroke="#04D361" stroke-width="3" stroke-miterlimit="10" stroke-linecap="round" stroke-linejoin="round"/>
<path d="M502.866 214.422C498.316 214.422 494.609 210.752 494.609 206.211C494.609 201.686 498.3 198 502.866 198C507.416 198 511.123 201.67 511.123 206.211C511.107 210.752 507.416 214.422 502.866 214.422Z" stroke="#04D361" stroke-width="3" stroke-miterlimit="10" stroke-linecap="round" stroke-linejoin="round"/>
<path d="M667.743 421.169C663.193 421.169 659.486 417.499 659.486 412.958C659.486 408.434 663.177 404.747 667.743 404.747C672.293 404.747 676 408.418 676 412.958C675.984 417.499 672.293 421.169 667.743 421.169Z" stroke="#04D361" stroke-width="3" stroke-miterlimit="10" stroke-linecap="round" stroke-linejoin="round"/>
<path d="M148.592 547.906C144.041 547.906 140.335 544.236 140.335 539.695C140.335 535.17 144.026 531.484 148.592 531.484C153.142 531.484 156.848 535.155 156.848 539.695C156.833 544.236 153.142 547.906 148.592 547.906Z" stroke="#04D361" stroke-width="3" stroke-miterlimit="10" stroke-linecap="round" stroke-linejoin="round"/>
<path d="M247.224 99.2467C247.224 100.889 248.562 102.221 250.214 102.221C251.866 102.221 253.204 100.889 253.204 99.2467C253.204 97.6044 251.866 96.2729 250.214 96.2729C248.562 96.2729 247.224 97.6044 247.224 99.2467Z" fill="#9871F5"/>
<path d="M247.224 120.02C247.224 121.662 248.562 122.994 250.214 122.994C251.866 122.994 253.204 121.662 253.204 120.02C253.204 118.378 251.866 117.046 250.214 117.046C248.562 117.046 247.224 118.378 247.224 120.02Z" fill="#9871F5"/>
<path d="M247.224 140.774C247.224 142.417 248.562 143.748 250.214 143.748C251.866 143.748 253.204 142.417 253.204 140.774C253.204 139.132 251.866 137.801 250.214 137.801C248.562 137.801 247.224 139.132 247.224 140.774Z" fill="#9871F5"/>
<path d="M247.224 161.545C247.224 163.187 248.562 164.519 250.214 164.519C251.866 164.519 253.204 163.187 253.204 161.545C253.204 159.902 251.866 158.571 250.214 158.571C248.562 158.571 247.224 159.902 247.224 161.545Z" fill="#9871F5"/>
<path d="M247.224 182.301C247.224 183.943 248.562 185.275 250.214 185.275C251.866 185.275 253.204 183.943 253.204 182.301C253.204 180.659 251.866 179.327 250.214 179.327C248.562 179.327 247.224 180.659 247.224 182.301Z" fill="#9871F5"/>
<path d="M247.224 203.071C247.224 204.714 248.562 206.045 250.214 206.045C251.866 206.045 253.204 204.714 253.204 203.071C253.204 201.429 251.866 200.098 250.214 200.098C248.562 200.098 247.224 201.429 247.224 203.071Z" fill="#9871F5"/>
<path d="M226.35 99.247C226.35 100.889 227.689 102.221 229.341 102.221C230.992 102.221 232.331 100.889 232.331 99.247C232.331 97.6046 230.992 96.2732 229.341 96.2732C227.689 96.2732 226.35 97.6046 226.35 99.247Z" fill="#9871F5"/>
<path d="M226.35 120.02C226.35 121.662 227.689 122.994 229.341 122.994C230.992 122.994 232.331 121.662 232.331 120.02C232.331 118.378 230.992 117.046 229.341 117.046C227.689 117.046 226.35 118.378 226.35 120.02Z" fill="#9871F5"/>
<path d="M226.35 140.774C226.35 142.417 227.689 143.748 229.341 143.748C230.992 143.748 232.331 142.417 232.331 140.774C232.331 139.132 230.992 137.801 229.341 137.801C227.689 137.801 226.35 139.132 226.35 140.774Z" fill="#9871F5"/>
<path d="M226.35 161.545C226.35 163.187 227.689 164.519 229.341 164.519C230.992 164.519 232.331 163.187 232.331 161.545C232.331 159.902 230.992 158.571 229.341 158.571C227.689 158.571 226.35 159.902 226.35 161.545Z" fill="#9871F5"/>
<path d="M226.35 182.301C226.35 183.943 227.689 185.275 229.341 185.275C230.992 185.275 232.331 183.943 232.331 182.301C232.331 180.659 230.992 179.327 229.341 179.327C227.689 179.327 226.35 180.659 226.35 182.301Z" fill="#9871F5"/>
<path d="M226.35 203.071C226.35 204.714 227.689 206.045 229.341 206.045C230.992 206.045 232.331 204.714 232.331 203.071C232.331 201.429 230.992 200.098 229.341 200.098C227.689 200.098 226.35 201.429 226.35 203.071Z" fill="#9871F5"/>
<path d="M205.461 99.247C205.461 100.889 206.8 102.221 208.452 102.221C210.103 102.221 211.442 100.889 211.442 99.247C211.442 97.6046 210.103 96.2732 208.452 96.2732C206.8 96.2732 205.461 97.6046 205.461 99.247Z" fill="#9871F5"/>
<path d="M205.461 120.02C205.461 121.662 206.8 122.994 208.452 122.994C210.103 122.994 211.442 121.662 211.442 120.02C211.442 118.378 210.103 117.046 208.452 117.046C206.8 117.046 205.461 118.378 205.461 120.02Z" fill="#9871F5"/>
<path d="M205.461 140.774C205.461 142.417 206.8 143.748 208.452 143.748C210.103 143.748 211.442 142.417 211.442 140.774C211.442 139.132 210.103 137.801 208.452 137.801C206.8 137.801 205.461 139.132 205.461 140.774Z" fill="#9871F5"/>
<path d="M205.461 161.545C205.461 163.187 206.8 164.519 208.452 164.519C210.103 164.519 211.442 163.187 211.442 161.545C211.442 159.902 210.103 158.571 208.452 158.571C206.8 158.571 205.461 159.902 205.461 161.545Z" fill="#9871F5"/>
<path d="M205.461 182.301C205.461 183.943 206.8 185.275 208.452 185.275C210.103 185.275 211.442 183.943 211.442 182.301C211.442 180.659 210.103 179.327 208.452 179.327C206.8 179.327 205.461 180.659 205.461 182.301Z" fill="#9871F5"/>
<path d="M205.461 203.071C205.461 204.714 206.8 206.045 208.452 206.045C210.103 206.045 211.442 204.714 211.442 203.071C211.442 201.429 210.103 200.098 208.452 200.098C206.8 200.098 205.461 201.429 205.461 203.071Z" fill="#9871F5"/>
<path d="M184.588 99.247C184.588 100.889 185.927 102.221 187.579 102.221C189.23 102.221 190.569 100.889 190.569 99.247C190.569 97.6046 189.23 96.2732 187.579 96.2732C185.927 96.2732 184.588 97.6046 184.588 99.247Z" fill="#9871F5"/>
<path d="M184.588 120.02C184.588 121.662 185.927 122.994 187.579 122.994C189.23 122.994 190.569 121.662 190.569 120.02C190.569 118.378 189.23 117.046 187.579 117.046C185.927 117.046 184.588 118.378 184.588 120.02Z" fill="#9871F5"/>
<path d="M184.588 140.774C184.588 142.417 185.927 143.748 187.579 143.748C189.23 143.748 190.569 142.417 190.569 140.774C190.569 139.132 189.23 137.801 187.579 137.801C185.927 137.801 184.588 139.132 184.588 140.774Z" fill="#9871F5"/>
<path d="M184.588 161.545C184.588 163.187 185.927 164.519 187.579 164.519C189.23 164.519 190.569 163.187 190.569 161.545C190.569 159.902 189.23 158.571 187.579 158.571C185.927 158.571 184.588 159.902 184.588 161.545Z" fill="#9871F5"/>
<path d="M184.588 182.301C184.588 183.943 185.927 185.275 187.579 185.275C189.23 185.275 190.569 183.943 190.569 182.301C190.569 180.659 189.23 179.327 187.579 179.327C185.927 179.327 184.588 180.659 184.588 182.301Z" fill="#9871F5"/>
<path d="M184.588 203.071C184.588 204.714 185.927 206.045 187.579 206.045C189.23 206.045 190.569 204.714 190.569 203.071C190.569 201.429 189.23 200.098 187.579 200.098C185.927 200.098 184.588 201.429 184.588 203.071Z" fill="#9871F5"/>
<path d="M587.788 553.706C587.788 555.348 589.127 556.679 590.779 556.679C592.43 556.679 593.769 555.348 593.769 553.706C593.769 552.063 592.43 550.732 590.779 550.732C589.127 550.732 587.788 552.063 587.788 553.706Z" fill="#9871F5"/>
<path d="M587.789 574.46C587.789 576.103 589.128 577.434 590.78 577.434C592.431 577.434 593.77 576.103 593.77 574.46C593.77 572.818 592.431 571.487 590.78 571.487C589.128 571.487 587.789 572.818 587.789 574.46Z" fill="#9871F5"/>
<path d="M587.789 595.23C587.789 596.872 589.128 598.204 590.78 598.204C592.431 598.204 593.77 596.872 593.77 595.23C593.77 593.588 592.431 592.256 590.78 592.256C589.128 592.256 587.789 593.588 587.789 595.23Z" fill="#9871F5"/>
<path d="M566.9 553.703C566.9 555.346 568.239 556.677 569.891 556.677C571.542 556.677 572.881 555.346 572.881 553.703C572.881 552.061 571.542 550.73 569.891 550.73C568.239 550.73 566.9 552.061 566.9 553.703Z" fill="#9871F5"/>
<path d="M566.9 574.46C566.9 576.103 568.239 577.434 569.891 577.434C571.542 577.434 572.881 576.103 572.881 574.46C572.881 572.818 571.542 571.487 569.891 571.487C568.239 571.487 566.9 572.818 566.9 574.46Z" fill="#9871F5"/>
<path d="M566.9 595.228C566.9 596.871 568.239 598.202 569.891 598.202C571.542 598.202 572.881 596.871 572.881 595.228C572.881 593.586 571.542 592.255 569.891 592.255C568.239 592.255 566.9 593.586 566.9 595.228Z" fill="#9871F5"/>
<path d="M661.498 187.974C661.498 189.617 662.837 190.948 664.488 190.948C666.14 190.948 667.479 189.617 667.479 187.974C667.479 186.332 666.14 185.001 664.488 185.001C662.837 185.001 661.498 186.332 661.498 187.974Z" fill="#9871F5"/>
<path d="M661.498 208.728C661.498 210.37 662.837 211.702 664.489 211.702C666.14 211.702 667.479 210.37 667.479 208.728C667.479 207.086 666.14 205.754 664.489 205.754C662.837 205.754 661.498 207.086 661.498 208.728Z" fill="#9871F5"/>
<path d="M661.498 229.5C661.498 231.143 662.837 232.474 664.489 232.474C666.14 232.474 667.479 231.143 667.479 229.5C667.479 227.858 666.14 226.527 664.489 226.527C662.837 226.527 661.498 227.858 661.498 229.5Z" fill="#9871F5"/>
<path d="M640.609 187.974C640.609 189.616 641.948 190.948 643.599 190.948C645.251 190.948 646.59 189.616 646.59 187.974C646.59 186.331 645.251 185 643.599 185C641.948 185 640.609 186.331 640.609 187.974Z" fill="#9871F5"/>
<path d="M640.609 208.73C640.609 210.372 641.948 211.704 643.599 211.704C645.251 211.704 646.59 210.372 646.59 208.73C646.59 207.088 645.251 205.756 643.599 205.756C641.948 205.756 640.609 207.088 640.609 208.73Z" fill="#9871F5"/>
<path d="M640.609 229.5C640.609 231.143 641.948 232.474 643.599 232.474C645.251 232.474 646.59 231.143 646.59 229.5C646.59 227.858 645.251 226.526 643.599 226.526C641.948 226.526 640.609 227.858 640.609 229.5Z" fill="#9871F5"/>
<path d="M254.711 738.983C254.711 740.626 256.049 741.957 257.701 741.957C259.353 741.957 260.691 740.626 260.691 738.983C260.691 737.341 259.353 736.01 257.701 736.01C256.049 736.01 254.711 737.341 254.711 738.983Z" fill="#9871F5"/>
<path d="M233.822 738.983C233.822 740.626 235.16 741.957 236.812 741.957C238.464 741.957 239.802 740.626 239.802 738.983C239.802 737.341 238.464 736.01 236.812 736.01C235.16 736.01 233.822 737.341 233.822 738.983Z" fill="#9871F5"/>
<path d="M212.948 738.983C212.948 740.626 214.287 741.957 215.939 741.957C217.59 741.957 218.929 740.626 218.929 738.983C218.929 737.341 217.59 736.01 215.939 736.01C214.287 736.01 212.948 737.341 212.948 738.983Z" fill="#9871F5"/>
<path d="M192.059 738.983C192.059 740.626 193.398 741.957 195.05 741.957C196.701 741.957 198.04 740.626 198.04 738.983C198.04 737.341 196.701 736.01 195.05 736.01C193.398 736.01 192.059 737.341 192.059 738.983Z" fill="#9871F5"/>
<path d="M171.186 738.983C171.186 740.626 172.525 741.957 174.177 741.957C175.828 741.957 177.167 740.626 177.167 738.983C177.167 737.341 175.828 736.01 174.177 736.01C172.525 736.01 171.186 737.341 171.186 738.983Z" fill="#9871F5"/>
<path d="M150.297 738.983C150.297 740.626 151.636 741.957 153.288 741.957C154.939 741.957 156.278 740.626 156.278 738.983C156.278 737.341 154.939 736.01 153.288 736.01C151.636 736.01 150.297 737.341 150.297 738.983Z" fill="#9871F5"/>
<path d="M129.424 738.983C129.424 740.626 130.763 741.957 132.414 741.957C134.066 741.957 135.405 740.626 135.405 738.983C135.405 737.341 134.066 736.01 132.414 736.01C130.763 736.01 129.424 737.341 129.424 738.983Z" fill="#9871F5"/>
<path d="M254.711 718.212C254.711 719.854 256.049 721.186 257.701 721.186C259.353 721.186 260.691 719.854 260.691 718.212C260.691 716.57 259.353 715.238 257.701 715.238C256.049 715.238 254.711 716.57 254.711 718.212Z" fill="#9871F5"/>
<path d="M233.822 718.212C233.822 719.854 235.16 721.186 236.812 721.186C238.464 721.186 239.802 719.854 239.802 718.212C239.802 716.57 238.464 715.238 236.812 715.238C235.16 715.238 233.822 716.57 233.822 718.212Z" fill="#9871F5"/>
<path d="M212.948 718.212C212.948 719.854 214.287 721.186 215.939 721.186C217.59 721.186 218.929 719.854 218.929 718.212C218.929 716.57 217.59 715.238 215.939 715.238C214.287 715.238 212.948 716.57 212.948 718.212Z" fill="#9871F5"/>
<path d="M192.059 718.212C192.059 719.854 193.398 721.186 195.05 721.186C196.701 721.186 198.04 719.854 198.04 718.212C198.04 716.57 196.701 715.238 195.05 715.238C193.398 715.238 192.059 716.57 192.059 718.212Z" fill="#9871F5"/>
<path d="M171.186 718.212C171.186 719.854 172.525 721.186 174.177 721.186C175.828 721.186 177.167 719.854 177.167 718.212C177.167 716.57 175.828 715.238 174.177 715.238C172.525 715.238 171.186 716.57 171.186 718.212Z" fill="#9871F5"/>
<path d="M150.297 718.212C150.297 719.854 151.636 721.186 153.288 721.186C154.939 721.186 156.278 719.854 156.278 718.212C156.278 716.57 154.939 715.238 153.288 715.238C151.636 715.238 150.297 716.57 150.297 718.212Z" fill="#9871F5"/>
<path d="M129.424 718.212C129.424 719.854 130.763 721.186 132.414 721.186C134.066 721.186 135.405 719.854 135.405 718.212C135.405 716.57 134.066 715.238 132.414 715.238C130.763 715.238 129.424 716.57 129.424 718.212Z" fill="#9871F5"/>
<path d="M254.711 697.456C254.711 699.098 256.049 700.43 257.701 700.43C259.353 700.43 260.691 699.098 260.691 697.456C260.691 695.814 259.353 694.482 257.701 694.482C256.049 694.482 254.711 695.814 254.711 697.456Z" fill="#9871F5"/>
<path d="M233.822 697.456C233.822 699.098 235.16 700.43 236.812 700.43C238.464 700.43 239.802 699.098 239.802 697.456C239.802 695.814 238.464 694.482 236.812 694.482C235.16 694.482 233.822 695.814 233.822 697.456Z" fill="#9871F5"/>
<path d="M212.948 697.456C212.948 699.098 214.287 700.43 215.939 700.43C217.59 700.43 218.929 699.098 218.929 697.456C218.929 695.814 217.59 694.482 215.939 694.482C214.287 694.482 212.948 695.814 212.948 697.456Z" fill="#9871F5"/>
<path d="M192.059 697.456C192.059 699.098 193.398 700.43 195.05 700.43C196.701 700.43 198.04 699.098 198.04 697.456C198.04 695.814 196.701 694.482 195.05 694.482C193.398 694.482 192.059 695.814 192.059 697.456Z" fill="#9871F5"/>
<path d="M171.186 697.456C171.186 699.098 172.525 700.43 174.177 700.43C175.828 700.43 177.167 699.098 177.167 697.456C177.167 695.814 175.828 694.482 174.177 694.482C172.525 694.482 171.186 695.814 171.186 697.456Z" fill="#9871F5"/>
<path d="M150.297 697.456C150.297 699.098 151.636 700.43 153.288 700.43C154.939 700.43 156.278 699.098 156.278 697.456C156.278 695.814 154.939 694.482 153.288 694.482C151.636 694.482 150.297 695.814 150.297 697.456Z" fill="#9871F5"/>
<path d="M129.424 697.456C129.424 699.098 130.763 700.43 132.414 700.43C134.066 700.43 135.405 699.098 135.405 697.456C135.405 695.814 134.066 694.482 132.414 694.482C130.763 694.482 129.424 695.814 129.424 697.456Z" fill="#9871F5"/>
<path d="M254.708 676.686C254.708 678.328 256.047 679.66 257.699 679.66C259.351 679.66 260.689 678.328 260.689 676.686C260.689 675.043 259.351 673.712 257.699 673.712C256.047 673.712 254.708 675.043 254.708 676.686Z" fill="#9871F5"/>
<path d="M233.822 676.685C233.822 678.328 235.16 679.659 236.812 679.659C238.464 679.659 239.802 678.328 239.802 676.685C239.802 675.043 238.464 673.712 236.812 673.712C235.16 673.712 233.822 675.043 233.822 676.685Z" fill="#9871F5"/>
<path d="M212.948 676.685C212.948 678.328 214.287 679.659 215.939 679.659C217.59 679.659 218.929 678.328 218.929 676.685C218.929 675.043 217.59 673.712 215.939 673.712C214.287 673.712 212.948 675.043 212.948 676.685Z" fill="#9871F5"/>
<path d="M192.059 676.685C192.059 678.328 193.398 679.659 195.05 679.659C196.701 679.659 198.04 678.328 198.04 676.685C198.04 675.043 196.701 673.712 195.05 673.712C193.398 673.712 192.059 675.043 192.059 676.685Z" fill="#9871F5"/>
<path d="M171.186 676.685C171.186 678.328 172.525 679.659 174.177 679.659C175.828 679.659 177.167 678.328 177.167 676.685C177.167 675.043 175.828 673.712 174.177 673.712C172.525 673.712 171.186 675.043 171.186 676.685Z" fill="#9871F5"/>
<path d="M150.297 676.685C150.297 678.328 151.636 679.659 153.288 679.659C154.939 679.659 156.278 678.328 156.278 676.685C156.278 675.043 154.939 673.712 153.288 673.712C151.636 673.712 150.297 675.043 150.297 676.685Z" fill="#9871F5"/>
<path d="M129.424 676.685C129.424 678.328 130.763 679.659 132.414 679.659C134.066 679.659 135.405 678.328 135.405 676.685C135.405 675.043 134.066 673.712 132.414 673.712C130.763 673.712 129.424 675.043 129.424 676.685Z" fill="#9871F5"/>
<g clip-path="url(#clip0)">
<path d="M273.023 330.13H233.018C222.373 330.13 217 335.29 217 345.511V400.21C217 401.55 217.721 402.375 219.273 402.375H231.366C232.813 402.375 233.745 401.55 233.745 400.21V398.133C233.745 393.067 235.883 390.306 241.197 389.773H273.023C284.7 389.773 289.973 384.719 289.973 373.673V346.23C289.973 335.185 284.7 330.13 273.023 330.13ZM273.246 369.028C273.246 375.019 271.886 376.253 264.75 376.253H247.8C240.67 376.253 236.118 378.629 233.739 383.274V349.536C233.739 344.891 234.876 343.65 240.559 343.65H264.75C271.886 343.65 273.246 344.891 273.246 350.875V369.028Z" fill="white"/>
<path d="M328.32 360.37C319.121 360.37 315.19 365.015 315.19 372.86V400.414C315.19 401.655 314.569 402.374 313.122 402.374H302.165C300.718 402.374 299.998 401.655 299.998 400.414V350.05C299.998 348.81 300.718 348.084 302.165 348.084H311.364C312.711 348.084 313.432 348.81 313.432 350.05V358.176C315.19 351.472 320.258 348.061 329.251 348.061H332.972C334.313 348.061 335.034 348.786 335.034 350.027V358.41C335.034 359.75 334.313 360.37 332.972 360.37H328.32Z" fill="white"/>
<path d="M399.634 387.613C399.634 397.834 395.088 402.373 384.237 402.373H357.362C346.611 402.373 341.959 397.834 341.959 387.613V362.855C341.959 352.641 346.611 348.095 357.362 348.095H384.237C395.088 348.095 399.634 352.641 399.634 362.855V387.613ZM384.442 366.769C384.442 361.399 383.411 360.369 377.001 360.369H364.698C358.188 360.369 357.151 361.399 357.151 366.769V383.694C357.151 389.058 358.188 390.094 364.698 390.094H377.001C383.411 390.094 384.442 389.058 384.442 383.694V366.769Z" fill="white"/>
<path d="M414.932 360.37H409.759C408.411 360.37 407.69 359.75 407.69 358.41V350.05C407.69 348.81 408.411 348.085 409.759 348.085H414.926V341.38C414.932 331.16 420.305 326 430.95 326H443.664C445.111 326 445.732 326.726 445.732 327.96V336.32C445.732 337.665 445.111 338.28 443.664 338.28H436.95C431.261 338.28 430.124 339.52 430.124 344.165V348.085H443.664C445.111 348.085 445.732 348.81 445.732 350.05V358.41C445.732 359.75 445.111 360.37 443.664 360.37H430.124V400.415C430.124 401.655 429.404 402.374 427.956 402.374H417C415.553 402.374 414.932 401.655 414.932 400.415V360.37Z" fill="white"/>
<path d="M457.105 360.37H451.943C450.601 360.37 449.881 359.75 449.881 358.41V350.05C449.881 348.81 450.601 348.085 451.943 348.085H457.116V341.38C457.105 331.16 462.489 326 473.123 326H485.837C487.284 326 487.905 326.726 487.905 327.96V336.32C487.905 337.665 487.284 338.28 485.837 338.28H479.117C473.433 338.28 472.297 339.52 472.297 344.165V348.085H485.837C487.284 348.085 487.905 348.81 487.905 350.05V358.41C487.905 359.75 487.284 360.37 485.837 360.37H472.297V400.415C472.297 401.655 471.57 402.374 470.123 402.374H459.167C457.72 402.374 457.105 401.655 457.105 400.415V360.37Z" fill="white"/>
<path d="M534.103 423.429H511.569C501.445 423.429 497.103 419.51 497.103 409.804V408.775C497.073 408.498 497.106 408.218 497.2 407.955C497.293 407.692 497.444 407.454 497.642 407.258C497.84 407.062 498.08 406.913 498.344 406.822C498.608 406.731 498.889 406.701 499.166 406.733H509.712C511.159 406.733 511.88 407.458 511.88 408.798V409.313C511.88 411.378 513.022 412.203 515.295 412.203H528.32C534.519 412.203 536.071 410.658 536.071 405.393V389.112C533.693 393.757 529.146 396.132 522.01 396.132H511.464C500.713 396.132 495.955 391.593 495.955 381.372V350.05C495.941 349.78 495.986 349.51 496.086 349.258C496.186 349.007 496.34 348.78 496.537 348.593C496.733 348.406 496.968 348.264 497.224 348.176C497.481 348.089 497.753 348.057 498.023 348.085H509.085C510.427 348.085 511.153 348.81 511.153 350.05V377.482C511.153 382.847 512.29 383.882 518.7 383.882H526.556C533.376 383.882 536.065 381.092 536.065 375.417V350.05C536.065 348.81 536.786 348.085 538.134 348.085H549.201C549.466 348.059 549.733 348.093 549.983 348.183C550.233 348.272 550.46 348.416 550.648 348.604C550.835 348.792 550.979 349.02 551.068 349.27C551.158 349.52 551.19 349.786 551.164 350.05V407.02C551.158 417.848 545.369 423.429 534.103 423.429Z" fill="white"/>
</g>
<path d="M231.691 452.213C231.691 445.072 221.269 448.172 221.269 443.19C221.269 441.114 222.904 440.034 224.983 440.09C227.339 440.117 228.559 441.584 228.725 442.885H231.497C231.192 439.951 228.781 437.931 225.094 437.931C221.269 437.931 218.691 440.09 218.691 443.273C218.691 450.441 229.141 447.12 229.141 452.323C229.141 454.15 227.7 455.534 225.26 455.534C222.572 455.534 221.435 453.929 221.269 452.323H218.58C218.635 455.506 221.38 457.665 225.26 457.665C229.446 457.665 231.691 454.953 231.691 452.213Z" fill="#D4C2FF"/>
<path d="M248.875 442.304H246.352V450.635C246.352 453.901 244.606 455.506 242 455.506C239.45 455.506 237.759 453.929 237.759 450.857V442.304H235.265V451.189C235.265 455.534 238.009 457.693 241.501 457.693C243.525 457.693 245.382 456.807 246.352 455.23V457.472H248.875V442.304Z" fill="#D4C2FF"/>
<path d="M252.191 449.832C252.191 454.538 255.324 457.721 259.371 457.721C262.17 457.721 264.139 456.281 265.053 454.648V457.472H267.603V442.304H265.053V445.072C264.166 443.494 262.226 442.055 259.398 442.055C255.324 442.055 252.191 445.1 252.191 449.832ZM265.053 449.86C265.053 453.431 262.669 455.506 259.897 455.506C257.125 455.506 254.769 453.403 254.769 449.832C254.769 446.262 257.125 444.241 259.897 444.241C262.669 444.241 265.053 446.345 265.053 449.86Z" fill="#D4C2FF"/>
<path d="M281.779 445.1V442.304H279.256V464.668H281.779V454.676C282.721 456.226 284.689 457.721 287.461 457.721C291.536 457.721 294.668 454.538 294.668 449.832C294.668 445.1 291.536 442.055 287.461 442.055C284.689 442.055 282.693 443.494 281.779 445.1ZM292.09 449.832C292.09 453.403 289.734 455.506 286.934 455.506C284.19 455.506 281.779 453.431 281.779 449.86C281.779 446.345 284.19 444.241 286.934 444.241C289.734 444.241 292.09 446.262 292.09 449.832Z" fill="#D4C2FF"/>
<path d="M297.988 457.472H300.511V436.99H297.988V457.472Z" fill="#D4C2FF"/>
<path d="M303.868 449.832C303.868 454.538 307 457.721 311.047 457.721C313.847 457.721 315.815 456.281 316.729 454.648V457.472H319.28V442.304H316.729V445.072C315.842 443.494 313.902 442.055 311.075 442.055C307 442.055 303.868 445.1 303.868 449.832ZM316.729 449.86C316.729 453.431 314.345 455.506 311.574 455.506C308.802 455.506 306.445 453.403 306.445 449.832C306.445 446.262 308.802 444.241 311.574 444.241C314.345 444.241 316.729 446.345 316.729 449.86Z" fill="#D4C2FF"/>
<path d="M324.013 457.472H326.536V444.38H329.724V442.304H326.536V441.225C326.536 439.259 327.284 438.429 329.557 438.429V436.326C325.677 436.326 324.013 437.848 324.013 441.225V442.304H322.045V444.38H324.013V457.472Z" fill="#D4C2FF"/>
<path d="M347.079 449.86C347.079 445.072 343.725 442.055 339.401 442.055C335.104 442.055 331.722 445.072 331.722 449.86C331.722 454.676 334.993 457.721 339.29 457.721C343.614 457.721 347.079 454.676 347.079 449.86ZM334.3 449.86C334.3 446.041 336.712 444.241 339.373 444.241C341.978 444.241 344.501 446.041 344.501 449.86C344.501 453.707 341.923 455.506 339.29 455.506C336.656 455.506 334.3 453.707 334.3 449.86Z" fill="#D4C2FF"/>
<path d="M352.918 449.224C352.918 445.708 354.747 444.629 357.159 444.629H357.824V442.027C355.413 442.027 353.777 443.079 352.918 444.767V442.304H350.395V457.472H352.918V449.224Z" fill="#D4C2FF"/>
<path d="M382.662 457.472H385.157V448.532C385.157 444.186 382.468 442.027 379.003 442.027C376.675 442.027 374.513 443.217 373.626 445.404C372.628 443.134 370.549 442.027 368.054 442.027C366.058 442.027 364.256 442.885 363.259 444.491V442.304H360.736V457.472H363.259V449.113C363.259 445.847 365.005 444.214 367.555 444.214C370.05 444.214 371.713 445.791 371.713 448.891V457.472H374.208V449.113C374.208 445.847 375.954 444.214 378.504 444.214C380.999 444.214 382.662 445.791 382.662 448.891V457.472Z" fill="#D4C2FF"/>
<path d="M388.352 449.832C388.352 454.538 391.484 457.721 395.531 457.721C398.331 457.721 400.299 456.281 401.214 454.648V457.472H403.764V442.304H401.214V445.072C400.327 443.494 398.387 442.055 395.559 442.055C391.484 442.055 388.352 445.1 388.352 449.832ZM401.214 449.86C401.214 453.431 398.83 455.506 396.058 455.506C393.286 455.506 390.93 453.403 390.93 449.832C390.93 446.262 393.286 444.241 396.058 444.241C398.83 444.241 401.214 446.345 401.214 449.86Z" fill="#D4C2FF"/>
<path d="M414.474 449.832C414.474 454.538 417.607 457.721 421.681 457.721C424.453 457.721 426.422 456.309 427.336 454.621V457.472H429.886V436.99H427.336V445.016C426.283 443.273 424.093 442.055 421.709 442.055C417.607 442.055 414.474 445.1 414.474 449.832ZM427.336 449.86C427.336 453.431 424.952 455.506 422.18 455.506C419.408 455.506 417.052 453.403 417.052 449.832C417.052 446.262 419.408 444.241 422.18 444.241C424.952 444.241 427.336 446.345 427.336 449.86Z" fill="#D4C2FF"/>
<path d="M440.608 444.186C443.213 444.186 445.431 445.819 445.403 448.781H435.812C436.09 445.819 438.141 444.186 440.608 444.186ZM447.704 452.794H444.987C444.433 454.427 442.992 455.589 440.719 455.589C438.141 455.589 435.979 453.901 435.785 450.829H447.926C447.981 450.303 448.009 449.86 448.009 449.307C448.009 445.155 445.126 442.055 440.719 442.055C436.284 442.055 433.207 445.072 433.207 449.86C433.207 454.676 436.394 457.721 440.719 457.721C444.488 457.721 446.928 455.562 447.704 452.794Z" fill="#D4C2FF"/>
<path d="M225.593 479.553C228.199 479.553 230.416 481.186 230.388 484.147H220.797C221.075 481.186 223.126 479.553 225.593 479.553ZM232.689 488.16H229.973C229.418 489.793 227.977 490.956 225.704 490.956C223.126 490.956 220.964 489.268 220.77 486.195H232.911C232.966 485.669 232.994 485.227 232.994 484.673C232.994 480.521 230.111 477.421 225.704 477.421C221.269 477.421 218.192 480.438 218.192 485.227C218.192 490.043 221.38 493.087 225.704 493.087C229.474 493.087 231.913 490.928 232.689 488.16Z" fill="#D4C2FF"/>
<path d="M247.245 488.714C247.134 483.289 238.319 485.254 238.319 481.656C238.319 480.438 239.428 479.553 241.285 479.553C243.309 479.553 244.473 480.66 244.584 482.182H247.106C246.94 479.22 244.723 477.421 241.369 477.421C237.987 477.421 235.797 479.331 235.797 481.656C235.797 487.302 244.778 485.337 244.778 488.714C244.778 489.959 243.669 490.956 241.673 490.956C239.539 490.956 238.236 489.849 238.098 488.382H235.492C235.658 491.15 238.153 493.087 241.701 493.087C245.055 493.087 247.245 491.205 247.245 488.714Z" fill="#D4C2FF"/>
<path d="M251.36 488.686C251.36 491.731 252.885 492.838 255.574 492.838H257.847V490.707H255.989C254.437 490.707 253.883 490.181 253.883 488.686V479.746H257.847V477.67H253.883V473.851H251.36V477.67H249.392V479.746H251.36V488.686Z" fill="#D4C2FF"/>
<path d="M274.375 477.67H271.852V486.002C271.852 489.268 270.106 490.873 267.5 490.873C264.95 490.873 263.259 489.295 263.259 486.223V477.67H260.764V486.555C260.764 490.901 263.509 493.059 267.001 493.059C269.025 493.059 270.882 492.174 271.852 490.596V492.838H274.375V477.67Z" fill="#D4C2FF"/>
<path d="M277.691 485.199C277.691 489.904 280.823 493.087 284.898 493.087C287.67 493.087 289.638 491.676 290.553 489.987V492.838H293.103V472.356H290.553V480.383C289.5 478.639 287.31 477.421 284.926 477.421C280.823 477.421 277.691 480.466 277.691 485.199ZM290.553 485.227C290.553 488.797 288.169 490.873 285.397 490.873C282.625 490.873 280.269 488.769 280.269 485.199C280.269 481.628 282.625 479.608 285.397 479.608C288.169 479.608 290.553 481.711 290.553 485.227Z" fill="#D4C2FF"/>
<path d="M311.78 485.227C311.78 480.438 308.426 477.421 304.102 477.421C299.805 477.421 296.423 480.438 296.423 485.227C296.423 490.043 299.694 493.087 303.991 493.087C308.315 493.087 311.78 490.043 311.78 485.227ZM299.001 485.227C299.001 481.407 301.413 479.608 304.074 479.608C306.68 479.608 309.202 481.407 309.202 485.227C309.202 489.074 306.624 490.873 303.991 490.873C301.357 490.873 299.001 489.074 299.001 485.227Z" fill="#D4C2FF"/>
<path d="M326.018 488.714C325.907 483.289 317.092 485.254 317.092 481.656C317.092 480.438 318.201 479.553 320.058 479.553C322.082 479.553 323.246 480.66 323.357 482.182H325.879C325.713 479.22 323.495 477.421 320.141 477.421C316.76 477.421 314.57 479.331 314.57 481.656C314.57 487.302 323.551 485.337 323.551 488.714C323.551 489.959 322.442 490.956 320.446 490.956C318.312 490.956 317.009 489.849 316.871 488.382H314.265C314.431 491.15 316.926 493.087 320.474 493.087C323.828 493.087 326.018 491.205 326.018 488.714Z" fill="#D4C2FF"/>
<path d="M351.383 485.227C351.383 480.438 348.029 477.421 343.705 477.421C339.408 477.421 336.026 480.438 336.026 485.227C336.026 490.043 339.297 493.087 343.594 493.087C347.918 493.087 351.383 490.043 351.383 485.227ZM338.604 485.227C338.604 481.407 341.016 479.608 343.677 479.608C346.283 479.608 348.805 481.407 348.805 485.227C348.805 489.074 346.227 490.873 343.594 490.873C340.96 490.873 338.604 489.074 338.604 485.227Z" fill="#D4C2FF"/>
<path d="M365.815 492.838H368.31V483.898C368.31 479.553 365.621 477.394 362.101 477.394C360.049 477.394 358.22 478.252 357.222 479.829V477.67H354.7V492.838H357.222V484.452C357.222 481.186 358.996 479.58 361.574 479.58C364.124 479.58 365.815 481.158 365.815 484.258V492.838Z" fill="#D4C2FF"/>
<path d="M372.43 492.838H374.953V472.356H372.43V492.838Z" fill="#D4C2FF"/>
<path d="M379.252 492.838H381.774V477.67H379.252V492.838ZM380.555 475.207C381.469 475.207 382.218 474.46 382.218 473.491C382.218 472.522 381.469 471.775 380.555 471.775C379.584 471.775 378.836 472.522 378.836 473.491C378.836 474.46 379.584 475.207 380.555 475.207Z" fill="#D4C2FF"/>
<path d="M397.189 492.838H399.684V483.898C399.684 479.553 396.995 477.394 393.474 477.394C391.423 477.394 389.594 478.252 388.596 479.829V477.67H386.073V492.838H388.596V484.452C388.596 481.186 390.37 479.58 392.948 479.58C395.498 479.58 397.189 481.158 397.189 484.258V492.838Z" fill="#D4C2FF"/>
<path d="M410.263 479.553C412.868 479.553 415.086 481.186 415.058 484.147H405.467C405.744 481.186 407.796 479.553 410.263 479.553ZM417.359 488.16H414.642C414.088 489.793 412.646 490.956 410.373 490.956C407.796 490.956 405.633 489.268 405.439 486.195H417.581C417.636 485.669 417.664 485.227 417.664 484.673C417.664 480.521 414.781 477.421 410.373 477.421C405.938 477.421 402.862 480.438 402.862 485.227C402.862 490.043 406.049 493.087 410.373 493.087C414.143 493.087 416.583 490.928 417.359 488.16Z" fill="#D4C2FF"/>
<path d="M423.46 491.288C423.46 490.319 422.712 489.572 421.797 489.572C420.827 489.572 420.079 490.319 420.079 491.288C420.079 492.257 420.827 493.004 421.797 493.004C422.712 493.004 423.46 492.257 423.46 491.288Z" fill="#D4C2FF"/>
<defs>
<clipPath id="clip0">
<rect width="334.173" height="97.6421" fill="white" transform="translate(217 326)"/>
</clipPath>
</defs>
</svg>
